<svg xmlns="http://www.w3.org/2000/svg" viewBox="0 0 512 512">
  <defs>
    <linearGradient id="bg" x1="0" y1="0" x2="1" y2="1">
      <stop offset="0%" stop-color="#e86b3f"/>
      <stop offset="100%" stop-color="#b84e2c"/>
    </linearGradient>
    <linearGradient id="shine" x1="0" y1="0" x2="0" y2="1">
      <stop offset="0%" stop-color="white" stop-opacity="0.18"/>
      <stop offset="55%" stop-color="white" stop-opacity="0"/>
    </linearGradient>
    <filter id="heartShadow" x="-10%" y="-10%" width="120%" height="120%">
      <feDropShadow dx="0" dy="4" stdDeviation="8" flood-color="rgba(0,0,0,0.18)"/>
    </filter>
  </defs>

  <!-- Background -->
  <rect width="512" height="512" fill="url(#bg)"/>
  <!-- Shine -->
  <rect width="512" height="300" fill="url(#shine)"/>

  <!-- Heart (centered, safe zone 80% = within 51..461) -->
  <path
    d="M256 390
       C160 318 96 268 96 198
       C96 148 132 110 176 110
       C210 110 238 128 256 156
       C274 128 302 110 336 110
       C380 110 416 148 416 198
       C416 268 352 318 256 390Z"
    fill="white"
    opacity="0.96"
    filter="url(#heartShadow)"
  />

  <!-- Small family dots (3 = Mama, Papa, Kind) -->
  <circle cx="212" cy="210" r="14" fill="#c05a3d" opacity="0.65"/>
  <circle cx="256" cy="225" r="14" fill="#c05a3d" opacity="0.65"/>
  <circle cx="300" cy="210" r="14" fill="#c05a3d" opacity="0.65"/>

  <!-- Sparkle top-right -->
  <circle cx="388" cy="148" r="10" fill="white" opacity="0.35"/>
  <circle cx="412" cy="124" r="5" fill="white" opacity="0.25"/>
  <circle cx="364" cy="124" r="4" fill="white" opacity="0.2"/>
</svg>
